<svg width="55" height="55" viewBox="0 0 55 55" fill="none" xmlns="http://www.w3.org/2000/svg">
<path d="M55 6.875V0L16.5 5.5V38.9675C15.6165 38.6567 14.6866 38.4986 13.75 38.5H8.25C6.06196 38.5 3.96354 39.3692 2.41637 40.9164C0.869194 42.4635 0 44.562 0 46.75C0 48.938 0.869194 51.0365 2.41637 52.5836C3.96354 54.1308 6.06196 55 8.25 55H13.75C15.938 55 18.0365 54.1308 19.5836 52.5836C21.1308 51.0365 22 48.938 22 46.75V15.7025L49.5 11.825V33.495C48.6165 33.1842 47.6866 33.0261 46.75 33.0275H41.25C39.062 33.0275 36.9635 33.8967 35.4164 35.4439C33.8692 36.991 33 39.0895 33 41.2775C33 43.4655 33.8692 45.564 35.4164 47.1111C36.9635 48.6583 39.062 49.5275 41.25 49.5275H46.75C48.938 49.5275 51.0365 48.6583 52.5836 47.1111C54.1308 45.564 55 43.4655 55 41.2775V6.875Z" fill="black"/>
</svg>
